<svg xmlns="http://www.w3.org/2000/svg" width="24" height="24" viewBox="0 0 24 24">
    <g fill="none" fill-rule="evenodd">
        <circle cx="12" cy="12" r="12" fill="#ffb55c"/>
        <path fill="#FFF" d="M15 9.064c0 .388-.078.733-.233 1.034-.155.301-.349.595-.582.881l-1.23 1.502c-.089.102-.16.224-.216.367-.056.143-.083.281-.083.414v.322h-2.162v-.46c0-.327.05-.608.15-.843.1-.235.26-.485.482-.75l1.23-1.456c.133-.163.247-.332.341-.505.094-.174.141-.348.141-.521 0-.358-.119-.656-.357-.896s-.568-.36-.99-.36c-.443 0-.775.122-.997.367a1.298 1.298 0 0 0-.332.904H8c0-.47.091-.896.274-1.28.183-.382.433-.704.749-.964.315-.26.684-.463 1.105-.606A4.215 4.215 0 0 1 11.492 6c.465 0 .911.069 1.338.207.427.138.801.337 1.122.597.322.26.577.58.765.958.189.378.283.812.283 1.302zM12.722 17h-2.294v-2.038h2.294V17z"/>
    </g>
</svg>
